<svg xmlns="http://www.w3.org/2000/svg" xmlns:xlink="http://www.w3.org/1999/xlink">
<defs>
<symbol id="github" fill-rule="evenodd" clip-rule="evenodd" stroke-linejoin="round" stroke-miterlimit="1.414">
  <path d="M8 0C3.58 0 0 3.582 0 8c0 3.535 2.292 6.533 5.47 7.59.4.075.547-.172.547-.385 0-.19-.007-.693-.01-1.36-2.226.483-2.695-1.073-2.695-1.073-.364-.924-.89-1.17-.89-1.17-.725-.496.056-.486.056-.486.803.056 1.225.824 1.225.824.714 1.223 1.873.87 2.33.665.072-.517.278-.87.507-1.07-1.777-.2-3.644-.888-3.644-3.953 0-.873.31-1.587.823-2.147-.083-.202-.358-1.015.077-2.117 0 0 .672-.215 2.2.82A7.662 7.662 0 0 1 8 3.868a7.67 7.67 0 0 1 2.003.27c1.527-1.035 2.198-.82 2.198-.82.437 1.102.163 1.915.08 2.117.513.56.822 1.274.822 2.147 0 3.073-1.87 3.75-3.653 3.947.287.246.543.735.543 1.48 0 1.07-.01 1.933-.01 2.195 0 .215.144.463.55.385C13.71 14.53 16 11.534 16 8c0-4.418-3.582-8-8-8"/>
</symbol>
<symbol id="twitter" fill-rule="evenodd" clip-rule="evenodd" stroke-linejoin="round" stroke-miterlimit="1.414">
  <path d="M16 3.038c-.59.26-1.22.437-1.885.517.677-.407 1.198-1.05 1.443-1.816-.634.375-1.337.648-2.085.795-.598-.638-1.45-1.036-2.396-1.036-1.812 0-3.282 1.468-3.282 3.28 0 .258.03.51.085.75C5.152 5.39 2.733 4.084 1.114 2.1.83 2.583.67 3.147.67 3.75c0 1.14.58 2.143 1.46 2.732-.538-.017-1.045-.165-1.487-.41v.04c0 1.59 1.13 2.918 2.633 3.22-.276.074-.566.114-.865.114-.212 0-.418-.02-.62-.06.418 1.304 1.63 2.253 3.067 2.28-1.124.88-2.54 1.404-4.077 1.404-.265 0-.526-.015-.783-.045 1.453.93 3.178 1.474 5.032 1.474 6.038 0 9.34-5.002 9.34-9.34 0-.142-.003-.284-.01-.425.64-.463 1.198-1.04 1.638-1.7z"/>
</symbol>
<symbol id="linkedin" fill-rule="evenodd" clip-rule="evenodd" stroke-linejoin="round" stroke-miterlimit="1.414">
  <path d="M13.632 13.635h-2.37V9.922c0-.886-.018-2.025-1.234-2.025-1.235 0-1.424.964-1.424 1.96v3.778h-2.37V6H8.51v1.04h.03c.318-.6 1.092-1.233 2.247-1.233 2.4 0 2.845 1.58 2.845 3.637v4.19zM3.558 4.955c-.762 0-1.376-.617-1.376-1.377 0-.758.614-1.375 1.376-1.375.76 0 1.376.617 1.376 1.375 0 .76-.617 1.377-1.376 1.377zm1.188 8.68H2.37V6h2.376v7.635zM14.816 0H1.18C.528 0 0 .516 0 1.153v13.694C0 15.484.528 16 1.18 16h13.635c.652 0 1.185-.516 1.185-1.153V1.153C16 .516 15.467 0 14.815 0z"/>
</symbol>
<symbol id="rss" fill-rule="evenodd" clip-rule="evenodd" stroke-linejoin="round" stroke-miterlimit="1.414">
  <path d="M12.8 16C12.8 8.978 7.022 3.2 0 3.2V0c8.777 0 16 7.223 16 16h-3.2zM2.194 11.61c1.21 0 2.195.985 2.195 2.196 0 1.21-.99 2.194-2.2 2.194C.98 16 0 15.017 0 13.806c0-1.21.983-2.195 2.194-2.195zM10.606 16h-3.11c0-4.113-3.383-7.497-7.496-7.497v-3.11c5.818 0 10.606 4.79 10.606 10.607z"/>
</symbol>
<symbol id="dribbble" fill-rule="evenodd" clip-rule="evenodd" stroke-linejoin="round" stroke-miterlimit="1.414">
  <path d="M8 16c-4.41 0-8-3.59-8-8s3.59-8 8-8 8 3.59 8 8-3.59 8-8 8zm6.747-6.905c-.234-.074-2.115-.635-4.257-.292.894 2.456 1.258 4.456 1.328 4.872 1.533-1.037 2.624-2.68 2.93-4.58zM10.67 14.3c-.102-.6-.5-2.688-1.46-5.18l-.044.014C5.312 10.477 3.93 13.15 3.806 13.4A6.78 6.78 0 0 0 8 14.8c.94 0 1.84-.18 2.67-.5zM2.79 12.61c.166-.282 2.03-3.38 5.555-4.525.09-.03.178-.056.267-.08-.173-.39-.36-.778-.555-1.16C4.78 7.85 1.6 7.808 1.2 7.8v.2c0 1.77.68 3.386 1.79 4.61zm-.785-6.46c.407.006 3.174.03 6.282-.85A43.303 43.303 0 0 0 6.278 2.5a6.86 6.86 0 0 0-4.273 3.65zm5.682-4.04c.57.662 1.127 1.39 1.63 2.16 2-.75 2.848-1.89 2.932-2.004A6.76 6.76 0 0 0 8 1.2c-.12 0-.24.005-.358.013l.044.097zm5.49 1.2c-.097.13-1.048 1.35-3.14 2.21.16.327.314.66.455 1 .05.117.1.235.147.353 2.274-.286 4.533.174 4.76.22A6.79 6.79 0 0 0 13.176 3.31z"/>
</symbol>
<symbol id="facebook" fill-rule="evenodd" clip-rule="evenodd" stroke-linejoin="round" stroke-miterlimit="1.414">
  <path d="M15.117 0H.883C.395 0 0 .395 0 .883v14.234c0 .488.395.883.883.883h7.663V9.804H6.46V7.39h2.086V5.607c0-2.066 1.262-3.19 3.106-3.19.883 0 1.642.064 1.863.094v2.16h-1.28c-1 0-1.195.48-1.195 1.18V7.39h2.39l-.31 2.42h-2.08V16h4.077c.488 0 .883-.395.883-.883V.883C16 .395 15.605 0 15.117 0"/>
</symbol>
<symbol id="flickr" fill-rule="evenodd" clip-rule="evenodd" stroke-linejoin="round" stroke-miterlimit="1.414">
  <path d="M0 8c0-2.2 1.8-4 4-4s4 1.8 4 4-1.8 4-4 4-4-1.8-4-4zm8 0c0-2.2 1.8-4 4-4s4 1.8 4 4-1.8 4-4 4-4-1.8-4-4z"/>
</symbol>
<symbol id="instagram" fill-rule="evenodd" clip-rule="evenodd" stroke-linejoin="round" stroke-miterlimit="1.414">
  <path d="M8 0C5.827 0 5.555.01 4.702.048 3.85.088 3.27.222 2.76.42a3.908 3.908 0 0 0-1.417.923c-.445.444-.72.89-.923 1.417-.198.51-.333 1.09-.372 1.942C.008 5.555 0 5.827 0 8s.01 2.445.048 3.298c.04.852.174 1.433.372 1.942.204.526.478.973.923 1.417.444.445.89.72 1.417.923.51.198 1.09.333 1.942.372.853.04 1.125.048 3.298.048s2.445-.01 3.298-.048c.852-.04 1.433-.174 1.942-.372a3.908 3.908 0 0 0 1.417-.923c.445-.444.72-.89.923-1.417.198-.51.333-1.09.372-1.942.04-.853.048-1.125.048-3.298s-.01-2.445-.048-3.298c-.04-.852-.174-1.433-.372-1.942a3.908 3.908 0 0 0-.923-1.417A3.886 3.886 0 0 0 13.24.42c-.51-.198-1.09-.333-1.942-.372C10.445.008 10.173 0 8 0zm0 1.44c2.136 0 2.39.01 3.233.048.78.036 1.203.166 1.485.276.374.145.64.318.92.598.28.28.453.546.598.92.11.282.24.705.276 1.485.038.844.047 1.097.047 3.233s-.01 2.39-.05 3.233c-.04.78-.17 1.203-.28 1.485-.15.374-.32.64-.6.92-.28.28-.55.453-.92.598-.28.11-.71.24-1.49.276-.85.038-1.1.047-3.24.047s-2.39-.01-3.24-.05c-.78-.04-1.21-.17-1.49-.28a2.49 2.49 0 0 1-.92-.6c-.28-.28-.46-.55-.6-.92-.11-.28-.24-.71-.28-1.49-.03-.84-.04-1.1-.04-3.23s.01-2.39.04-3.24c.04-.78.17-1.21.28-1.49.14-.37.32-.64.6-.92.28-.28.54-.46.92-.6.28-.11.7-.24 1.48-.28.85-.03 1.1-.04 3.24-.04zm0 2.452a4.108 4.108 0 1 0 0 8.215 4.108 4.108 0 0 0 0-8.215zm0 6.775a2.667 2.667 0 1 1 0-5.334 2.667 2.667 0 0 1 0 5.334zm5.23-6.937a.96.96 0 1 1-1.92 0 .96.96 0 0 1 1.92 0z"/>
</symbol>
<symbol id="pinterest" fill-rule="evenodd" clip-rule="evenodd" stroke-linejoin="round" stroke-miterlimit="1.414">
  <path d="M8 0a8 8 0 0 0-2.915 15.452c-.07-.633-.134-1.606.027-2.297.146-.625.938-3.977.938-3.977s-.24-.48-.24-1.188c0-1.112.645-1.943 1.448-1.943.683 0 1.012.512 1.012 1.127 0 .686-.437 1.712-.663 2.663-.188.796.4 1.446 1.185 1.446 1.42 0 2.514-1.498 2.514-3.662 0-1.914-1.376-3.254-3.342-3.254-2.276 0-3.612 1.707-3.612 3.472 0 .688.265 1.425.595 1.826a.24.24 0 0 1 .056.23c-.06.252-.197.796-.224.907-.035.146-.116.177-.268.107-1-.465-1.624-1.926-1.624-3.1 0-2.523 1.834-4.84 5.286-4.84 2.775 0 4.932 1.977 4.932 4.62 0 2.757-1.74 4.976-4.152 4.976-.81 0-1.573-.42-1.834-.92l-.498 1.902c-.18.695-.668 1.566-.994 2.097A8 8 0 1 0 8 0"/>
</symbol>
<symbol id="youtube" fill-rule="evenodd" clip-rule="evenodd" stroke-linejoin="round" stroke-miterlimit="1.414">
  <path d="M15.68 4.728c-.186-.695-.735-1.243-1.43-1.428C12.998 3 8 3 8 3s-4.998 0-6.25.3c-.695.185-1.244.733-1.43 1.428C0 5.98 0 8.628 0 8.628s0 2.647.32 3.9c.186.695.735 1.243 1.43 1.428C3.002 14.256 8 14.256 8 14.256s4.998 0 6.25-.3c.695-.185 1.244-.733 1.43-1.428.32-1.253.32-3.9.32-3.9s0-2.647-.32-3.9zM6.4 11.2V6.058L10.557 8.63 6.4 11.2z"/>
</symbol>
<symbol id="mastodon" fill-rule="evenodd" clip-rule="evenodd" stroke-linejoin="round" stroke-miterlimit="1.414">
  <path d="M11.19 12.195c2.016-.24 3.77-1.475 3.99-2.603.346-1.778.318-4.338.318-4.338 0-3.463-2.27-4.48-2.27-4.48C12.085.33 10.073.018 7.983 0h-.05C5.843.018 3.834.33 2.69.774c0 0-2.27 1.017-2.27 4.48 0 .79-.02 1.736.013 2.734.068 2.11.513 4.19 3.093 4.707 1.19.238 2.21.288 3.033.254 1.492-.06 2.33-.386 2.33-.386l-.05-1.082s-1.067.336-2.265.296c-1.186-.04-2.437-.126-2.63-1.564a2.96 2.96 0 0 1-.026-.432s1.164.284 2.64.35c.902.04 1.747-.053 2.605-.156zm1.788-2.052h-1.7v-4.03c0-.847-.356-1.278-1.067-1.278-.786 0-1.18.51-1.18 1.522V8.09H7.348V6.357c0-1.012-.393-1.522-1.18-1.522-.71 0-1.066.43-1.066 1.278v4.03h-1.7V6.048c0-.847.216-1.52.65-2.02.447-.498 1.033-.753 1.762-.753.842 0 1.48.324 1.9.972L8 4.714l.286-.467c.42-.648 1.058-.972 1.9-.972.73 0 1.315.255 1.762.753.434.5.65 1.173.65 2.02v4.096z"/>
</symbol>
<symbol id="googleplus" fill-rule="evenodd" clip-rule="evenodd" stroke-linejoin="round" stroke-miterlimit="1.414">
  <path d="M5.098 4.57v1.904h2.79c-.113.72-.826 2.113-2.79 2.113-1.68 0-3.048-1.39-3.048-3.104S3.42 2.38 5.1 2.38c.956 0 1.596.407 1.963.76l1.335-1.287C7.498.944 6.42.415 5.1.415A5.074 5.074 0 0 0 .02 5.483a5.074 5.074 0 0 0 5.08 5.068c2.93 0 4.874-2.06 4.874-4.964 0-.334-.036-.59-.08-.843H5.098zm10.882.44V3.28h-1.62V5.01h-1.73v1.62h1.73v1.73h1.62v-1.73H17.7V5.01h-1.72z"/>
</symbol>
</defs>
</svg>
